<svg xmlns="http://www.w3.org/2000/svg" fill="none" viewBox="0 0 200 200" stroke-width=".75" height="400" width="400"><g id="Product-We-got-a-problem-01"><g id="color 2"><path id="Subtract" fill="#a6cc42" fill-rule="evenodd" d="M50.1999 6.78103L71.0399 42.9C71.3515 43.4407 71.5154 44.0538 71.5153 44.6778C71.5152 45.3018 71.351 45.9148 71.0392 46.4553C70.7274 46.9959 70.2789 47.4449 69.7388 47.7575C69.1987 48.07 68.5859 48.235 67.9619 48.236L26.2599 48.239C25.6355 48.2383 25.0222 48.0734 24.4817 47.7607C23.9412 47.448 23.4924 46.9986 23.1805 46.4576C22.8686 45.9166 22.7046 45.3031 22.7048 44.6786C22.7051 44.0542 22.8696 43.4408 23.1819 42.9L44.0259 6.78103C44.3391 6.23951 44.7892 5.7899 45.331 5.47731C45.8729 5.16473 46.4874 5.00018 47.1129 5.00018C47.7385 5.00018 48.353 5.16473 48.8949 5.47731C49.4367 5.7899 49.8868 6.23951 50.1999 6.78103ZM47.11 39.0265C47.8389 39.0265 48.4298 38.4356 48.4298 37.7067C48.4298 36.9778 47.8389 36.387 47.11 36.387C46.3812 36.387 45.7903 36.9778 45.7903 37.7067C45.7903 38.4356 46.3812 39.0265 47.11 39.0265Z" clip-rule="evenodd"></path><path id="Vector" fill="#a6cc42" d="M159.231 38.5281C151.708 37.1031 144.531 41.5281 143.231 48.4071C142.789 50.8171 143.101 53.305 144.125 55.5311L140.876 60.8511L147.032 59.5971C149.099 61.5791 151.701 62.9132 154.517 63.4351C162.04 64.8601 169.217 60.4351 170.517 53.5561C171.827 46.6781 166.774 39.9531 159.231 38.5281Z"></path><path id="Vector_2" fill="#a6cc42" d="M64.6751 84.39C65.3677 84.39 65.9291 83.8286 65.9291 83.136C65.9291 82.4435 65.3677 81.882 64.6751 81.882C63.9826 81.882 63.4211 82.4435 63.4211 83.136C63.4211 83.8286 63.9826 84.39 64.6751 84.39Z"></path><path id="Vector_3" fill="#a6cc42" d="M75.9611 93.966C75.9611 94.2141 75.8876 94.4565 75.7498 94.6627C75.612 94.8689 75.4161 95.0297 75.187 95.1246C74.9579 95.2195 74.7057 95.2443 74.4625 95.1959C74.2192 95.1476 73.9958 95.0281 73.8204 94.8528C73.645 94.6774 73.5256 94.4539 73.4772 94.2107C73.4288 93.9674 73.4537 93.7153 73.5486 93.4862C73.6435 93.257 73.8042 93.0612 74.0104 92.9234C74.2167 92.7856 74.4591 92.712 74.7071 92.712C75.0389 92.7147 75.3563 92.8476 75.5909 93.0822C75.8256 93.3168 75.9585 93.6343 75.9611 93.966Z"></path><path id="Vector_4" fill="#a6cc42" d="M87.683 84.846C87.683 85.0941 87.6095 85.3365 87.4717 85.5427C87.3339 85.7489 87.1381 85.9097 86.9089 86.0046C86.6798 86.0995 86.4277 86.1243 86.1844 86.0759C85.9412 86.0276 85.7177 85.9081 85.5423 85.7327C85.367 85.5574 85.2475 85.3339 85.1991 85.0907C85.1508 84.8474 85.1756 84.5953 85.2705 84.3661C85.3654 84.137 85.5261 83.9412 85.7324 83.8034C85.9386 83.6656 86.181 83.592 86.429 83.592C86.7607 83.5949 87.078 83.728 87.3126 83.9625C87.5471 84.1971 87.6802 84.5143 87.683 84.846Z"></path><path id="Vector_5" fill="#a6cc42" d="M100.564 95.561C100.564 95.8091 100.491 96.0517 100.353 96.258C100.216 96.4644 100.02 96.6252 99.7907 96.7203C99.5616 96.8154 99.3094 96.8403 99.0661 96.7921C98.8228 96.7438 98.5993 96.6244 98.4238 96.4491C98.2483 96.2738 98.1288 96.0503 98.0803 95.8071C98.0319 95.5638 98.0566 95.3116 98.1515 95.0824C98.2464 94.8532 98.4071 94.6573 98.6134 94.5195C98.8196 94.3816 99.0621 94.308 99.3101 94.308C99.6417 94.3109 99.9588 94.4438 100.193 94.6782C100.428 94.9125 100.561 95.2295 100.564 95.561Z"></path><path id="Vector_6" fill="#a6cc42" d="M111.507 84.846C111.507 85.0941 111.433 85.3365 111.296 85.5427C111.158 85.7489 110.962 85.9097 110.733 86.0046C110.504 86.0995 110.252 86.1243 110.008 86.0759C109.765 86.0276 109.542 85.9081 109.366 85.7327C109.191 85.5574 109.072 85.3339 109.023 85.0907C108.975 84.8474 109 84.5953 109.094 84.3661C109.189 84.137 109.35 83.9412 109.556 83.8034C109.763 83.6656 110.005 83.592 110.253 83.592C110.585 83.5949 110.902 83.728 111.137 83.9625C111.371 84.1971 111.504 84.5143 111.507 84.846Z"></path><path id="Vector_7" fill="#a6cc42" d="M125.186 85.568C125.186 85.816 125.112 86.0585 124.975 86.2647C124.837 86.4709 124.641 86.6317 124.412 86.7266C124.183 86.8215 123.931 86.8463 123.687 86.7979C123.444 86.7495 123.221 86.6301 123.045 86.4547C122.87 86.2794 122.75 86.0559 122.702 85.8127C122.654 85.5694 122.679 85.3173 122.773 85.0881C122.868 84.859 123.029 84.6632 123.235 84.5254C123.442 84.3876 123.684 84.314 123.932 84.314C124.264 84.3169 124.581 84.4499 124.816 84.6845C125.05 84.919 125.183 85.2363 125.186 85.568Z"></path><path id="Vector_8" fill="#a6cc42" d="M139.074 84.846C139.767 84.846 140.328 84.2846 140.328 83.592C140.328 82.8995 139.767 82.338 139.074 82.338C138.382 82.338 137.82 82.8995 137.82 83.592C137.82 84.2846 138.382 84.846 139.074 84.846Z"></path><path id="Vector_9" fill="#a6cc42" d="M133.621 97.1C133.621 97.348 133.547 97.5905 133.41 97.7967C133.272 98.0029 133.076 98.1636 132.847 98.2586C132.618 98.3535 132.366 98.3783 132.122 98.3299C131.879 98.2815 131.656 98.1621 131.48 97.9867C131.305 97.8114 131.186 97.5879 131.137 97.3447C131.089 97.1014 131.114 96.8493 131.208 96.6201C131.303 96.391 131.464 96.1951 131.67 96.0574C131.877 95.9196 132.119 95.846 132.367 95.846C132.532 95.8443 132.696 95.8755 132.849 95.9379C133.002 96.0003 133.141 96.0926 133.258 96.2094C133.374 96.3262 133.467 96.4652 133.529 96.6181C133.592 96.771 133.623 96.9349 133.621 97.1Z"></path></g><g id="color 1"><path id="Vector_10" fill="#6153bd" d="M45.7151 78.824V84.979C46.5891 84.618 47.5151 84.238 48.4891 83.839V80.695C47.4549 80.2514 46.5138 79.6167 45.7151 78.824Z"></path><path id="Vector_11" fill="#6153bd" d="M45.7151 92.218V194.981H48.4891V90.489C47.6151 91.04 46.6081 91.686 45.7151 92.218Z"></path><path id="Vector_12" fill="#6153bd" d="M103.47 71.11L101.951 73.276L101.989 71.433L103.47 71.11Z"></path><path id="Vector_13" fill="#6153bd" d="M141.848 77.3L142.304 77.015C142.404 76.963 146.339 75.595 146.404 75.571C143.823 74.283 141.563 74.853 141.848 77.3Z"></path><path id="Vector_14" fill="#6153bd" d="M150.093 82.908L147.493 83.82C149.241 84.542 150.993 84.444 151.465 82.981L150.093 82.908Z"></path><path id="Vector_15" fill="#6153bd" d="M95.0161 192.15C94.7961 189.933 94.3113 187.751 93.5721 185.65C89.518 186.809 85.2202 186.809 81.1661 185.65C75.7901 187.208 69.6531 191.976 66.4421 194.978C77.2331 194.978 84.3771 194.883 92.5841 194.864C92.9282 194.865 93.2684 194.793 93.5827 194.652C93.8969 194.512 94.178 194.308 94.4076 194.051C94.6372 193.795 94.8101 193.493 94.915 193.166C95.0198 192.838 95.0543 192.492 95.0161 192.15Z"></path><path id="Vector_16" fill="#6153bd" d="M155.242 175.925L151.708 174.025C150.302 178.642 148.63 180.01 144.279 182.86C146.464 186.128 145.951 187.743 145.704 188.692C143.404 190.858 142.247 190.849 140.651 194.992H148.651C149.725 195.016 150.784 194.732 151.703 194.175C152.622 193.618 153.362 192.81 153.838 191.847C155.038 189.247 156.038 183.982 157.162 180.885C157.512 179.967 157.509 178.952 157.155 178.036C156.8 177.12 156.119 176.368 155.242 175.925Z"></path><path id="Vector_17" fill="#6153bd" d="M157.692 55.417C157.684 55.5909 157.608 55.7546 157.48 55.8722C157.352 55.9898 157.182 56.0516 157.008 56.044C156.834 56.0365 156.67 55.9602 156.553 55.8319C156.435 55.7036 156.373 55.5339 156.381 55.36C156.385 55.274 156.405 55.1895 156.442 55.1114C156.478 55.0333 156.53 54.9631 156.593 54.9049C156.657 54.8467 156.731 54.8015 156.812 54.772C156.893 54.7425 156.979 54.7293 157.065 54.733C157.151 54.7368 157.236 54.7574 157.314 54.7938C157.392 54.8302 157.462 54.8817 157.52 54.9452C157.578 55.0087 157.624 55.0831 157.653 55.164C157.682 55.245 157.696 55.331 157.692 55.417Z"></path><path id="Vector_18" fill="#6153bd" d="M45.7341 78.387V48.239L48.5081 48.236V78.558C46.8171 78.254 46.0001 78.235 45.7341 78.387Z"></path><path id="Vector_19" fill="#6153bd" d="M122.051 57.7C122.646 57.529 123.16 57.1521 123.502 56.6367C123.845 56.1213 123.992 55.5009 123.919 54.8866C123.846 54.2722 123.557 53.7039 123.103 53.2831C122.65 52.8624 122.061 52.6167 121.443 52.59C121.878 52.1982 122.169 51.6714 122.269 51.0944C122.369 50.5173 122.271 49.9235 121.993 49.4083C121.715 48.8931 121.271 48.4865 120.734 48.2538C120.196 48.021 119.596 47.9757 119.03 48.125C119.275 47.6043 119.341 47.0175 119.218 46.4553C119.096 45.8932 118.792 45.387 118.353 45.015C117.914 44.6431 117.365 44.426 116.79 44.3975C116.216 44.3689 115.648 44.5304 115.174 44.857C115.241 44.2602 115.1 43.6587 114.775 43.1535C114.451 42.6483 113.962 42.2702 113.392 42.0825C112.821 41.8949 112.204 41.9092 111.643 42.1231C111.081 42.3369 110.611 42.7373 110.31 43.257C110.195 42.6348 109.865 42.0725 109.379 41.667C108.894 41.2616 108.281 41.0385 107.649 41.0363C107.016 41.034 106.402 41.2527 105.913 41.6547C105.424 42.0567 105.091 42.6167 104.971 43.238C104.674 42.7161 104.207 42.3122 103.647 42.0938C103.088 41.8754 102.471 41.8558 101.899 42.0384C101.327 42.221 100.835 42.5945 100.505 43.0966C100.176 43.5986 100.029 44.1986 100.089 44.796C99.6184 44.465 99.0518 44.2981 98.4768 44.321C97.9018 44.3439 97.3503 44.5553 96.9074 44.9226C96.4644 45.29 96.1546 45.7928 96.0257 46.3537C95.8968 46.9145 95.956 47.5022 96.1941 48.026C95.6299 47.8762 95.0318 47.9189 94.4945 48.1474C93.9573 48.3758 93.5116 48.777 93.2281 49.2873C92.9446 49.7977 92.8394 50.388 92.9293 50.9649C93.0191 51.5417 93.2988 52.0721 93.7241 52.472C93.1061 52.494 92.516 52.7345 92.0587 53.1508C91.6014 53.5671 91.3066 54.1321 91.2268 54.7453C91.147 55.3585 91.2873 55.9802 91.6229 56.4996C91.9584 57.019 92.4673 57.4026 93.0591 57.582C92.4664 57.7569 91.9549 58.1364 91.6157 58.653C91.2765 59.1696 91.1317 59.7898 91.2069 60.4032C91.2822 61.0166 91.5727 61.5834 92.0266 62.0027C92.4806 62.422 93.0687 62.6666 93.6861 62.693C93.2563 63.0894 92.9717 63.6184 92.8779 64.1956C92.7842 64.7728 92.8866 65.3647 93.1689 65.8767C93.4512 66.3888 93.897 66.7914 94.4351 67.0203C94.9732 67.2491 95.5725 67.2909 96.1371 67.139C95.9436 67.5501 95.8613 68.0048 95.8982 68.4576C95.9351 68.9105 96.0901 69.3458 96.3477 69.7201C96.6053 70.0944 96.9564 70.3947 97.3662 70.591C97.776 70.7873 98.23 70.8728 98.6831 70.839C97.5241 69.908 97.1061 67.839 99.0061 63.449C102.388 55.641 105.484 61.093 105.446 64.266C105.503 64.836 105.826 64.95 106.681 64.247C108.467 62.765 110.025 65.881 106.624 67.666C105.978 68.009 105.541 68.766 106.092 72.966C106.126 73.2664 106.176 73.5645 106.244 73.859C106.615 74.0487 107.025 74.1483 107.441 74.1498C107.857 74.1513 108.268 74.0547 108.64 73.8678C109.012 73.6809 109.335 73.4089 109.582 73.074C109.829 72.739 109.994 72.3506 110.063 71.94C110.356 72.4648 110.821 72.873 111.379 73.0961C111.937 73.3192 112.555 73.3438 113.129 73.1657C113.703 72.9876 114.199 72.6177 114.533 72.1178C114.866 71.618 115.018 71.0186 114.963 70.42C115.43 70.7554 115.994 70.9276 116.569 70.91C117.143 70.8924 117.696 70.686 118.141 70.3228C118.587 69.9595 118.9 69.4596 119.033 68.9004C119.166 68.3412 119.111 67.7538 118.876 67.229C119.439 67.3807 120.036 67.3406 120.573 67.115C121.11 66.8895 121.557 66.4913 121.842 65.9834C122.128 65.4756 122.236 64.8871 122.149 64.3109C122.063 63.7347 121.787 63.2038 121.365 62.802C121.977 62.7739 122.56 62.5318 123.012 62.1179C123.464 61.7041 123.756 61.1447 123.838 60.5374C123.919 59.9301 123.785 59.3133 123.459 58.7948C123.132 58.2763 122.634 57.8888 122.051 57.7Z"></path></g><g id="outlines"><path id="Vector_20" stroke="#082558" d="M64.6751 84.39C65.3677 84.39 65.9291 83.8286 65.9291 83.136C65.9291 82.4435 65.3677 81.882 64.6751 81.882C63.9826 81.882 63.4211 82.4435 63.4211 83.136C63.4211 83.8286 63.9826 84.39 64.6751 84.39Z"></path><path id="Vector_21" stroke="#082558" d="M75.9611 93.966C75.9611 94.2141 75.8876 94.4565 75.7498 94.6627C75.612 94.8689 75.4161 95.0297 75.187 95.1246C74.9579 95.2195 74.7057 95.2443 74.4625 95.1959C74.2192 95.1476 73.9958 95.0281 73.8204 94.8528C73.645 94.6774 73.5256 94.4539 73.4772 94.2107C73.4288 93.9674 73.4537 93.7153 73.5486 93.4862C73.6435 93.257 73.8042 93.0612 74.0104 92.9234C74.2167 92.7856 74.4591 92.712 74.7071 92.712C75.0389 92.7147 75.3563 92.8476 75.5909 93.0822C75.8256 93.3168 75.9585 93.6343 75.9611 93.966Z"></path><path id="Vector_22" stroke="#082558" d="M87.683 84.846C87.683 85.0941 87.6095 85.3365 87.4717 85.5427C87.3339 85.7489 87.1381 85.9097 86.9089 86.0046C86.6798 86.0995 86.4277 86.1243 86.1844 86.0759C85.9412 86.0276 85.7177 85.9081 85.5423 85.7327C85.367 85.5574 85.2475 85.3339 85.1991 85.0907C85.1508 84.8474 85.1756 84.5953 85.2705 84.3661C85.3654 84.137 85.5261 83.9412 85.7324 83.8034C85.9386 83.6656 86.181 83.592 86.429 83.592C86.7607 83.5949 87.078 83.728 87.3126 83.9625C87.5471 84.1971 87.6802 84.5143 87.683 84.846V84.846Z"></path><path id="Vector_23" stroke="#082558" d="M100.564 95.561C100.564 95.8091 100.491 96.0517 100.353 96.258C100.216 96.4644 100.02 96.6252 99.7907 96.7203C99.5616 96.8154 99.3094 96.8403 99.0661 96.7921C98.8228 96.7438 98.5993 96.6244 98.4238 96.4491C98.2483 96.2738 98.1288 96.0503 98.0803 95.8071C98.0319 95.5638 98.0566 95.3116 98.1515 95.0824C98.2464 94.8532 98.4071 94.6573 98.6134 94.5195C98.8196 94.3816 99.0621 94.308 99.3101 94.308C99.6417 94.3109 99.9588 94.4438 100.193 94.6782C100.428 94.9125 100.561 95.2295 100.564 95.561V95.561Z"></path><path id="Vector_24" stroke="#082558" d="M111.507 84.846C111.507 85.0941 111.433 85.3365 111.296 85.5427C111.158 85.7489 110.962 85.9097 110.733 86.0046C110.504 86.0995 110.252 86.1243 110.008 86.0759C109.765 86.0276 109.542 85.9081 109.366 85.7327C109.191 85.5574 109.072 85.3339 109.023 85.0907C108.975 84.8474 109 84.5953 109.094 84.3661C109.189 84.137 109.35 83.9412 109.556 83.8034C109.763 83.6656 110.005 83.592 110.253 83.592C110.585 83.5949 110.902 83.728 111.137 83.9625C111.371 84.1971 111.504 84.5143 111.507 84.846V84.846Z"></path><path id="Vector_25" stroke="#082558" d="M125.186 85.568C125.186 85.816 125.112 86.0585 124.975 86.2647C124.837 86.4709 124.641 86.6317 124.412 86.7266C124.183 86.8215 123.931 86.8463 123.687 86.7979C123.444 86.7495 123.221 86.6301 123.045 86.4547C122.87 86.2794 122.75 86.0559 122.702 85.8127C122.654 85.5694 122.679 85.3173 122.773 85.0881C122.868 84.859 123.029 84.6632 123.235 84.5254C123.442 84.3876 123.684 84.314 123.932 84.314C124.264 84.3169 124.581 84.4499 124.816 84.6845C125.05 84.919 125.183 85.2363 125.186 85.568V85.568Z"></path><path id="Vector_26" stroke="#082558" d="M139.074 84.846C139.767 84.846 140.328 84.2846 140.328 83.592C140.328 82.8995 139.767 82.338 139.074 82.338C138.382 82.338 137.82 82.8995 137.82 83.592C137.82 84.2846 138.382 84.846 139.074 84.846Z"></path><path id="Vector_27" stroke="#082558" d="M133.621 97.1C133.621 97.348 133.547 97.5905 133.41 97.7967C133.272 98.0029 133.076 98.1636 132.847 98.2586C132.618 98.3535 132.366 98.3783 132.122 98.3299C131.879 98.2815 131.656 98.1621 131.48 97.9867C131.305 97.8114 131.186 97.5879 131.137 97.3447C131.089 97.1014 131.114 96.8493 131.208 96.6201C131.303 96.391 131.464 96.1951 131.67 96.0574C131.877 95.9196 132.119 95.846 132.367 95.846C132.532 95.8443 132.696 95.8755 132.849 95.9379C133.002 96.0003 133.141 96.0926 133.258 96.2094C133.374 96.3262 133.467 96.4652 133.529 96.6181C133.592 96.771 133.623 96.9349 133.621 97.1Z"></path><path id="Vector_28" stroke="#082558" d="M157.692 55.417C157.684 55.5909 157.608 55.7546 157.48 55.8722C157.352 55.9898 157.182 56.0516 157.008 56.044C156.834 56.0365 156.67 55.9602 156.553 55.8319C156.435 55.7036 156.373 55.5339 156.381 55.36C156.385 55.274 156.405 55.1895 156.442 55.1114C156.478 55.0333 156.53 54.9631 156.593 54.9049C156.657 54.8467 156.731 54.8015 156.812 54.772C156.893 54.7425 156.979 54.7293 157.065 54.733C157.151 54.7368 157.236 54.7574 157.314 54.7938C157.392 54.8302 157.462 54.8817 157.52 54.9452C157.578 55.0087 157.624 55.0831 157.653 55.164C157.682 55.245 157.696 55.331 157.692 55.417V55.417Z"></path><path id="Vector_29" stroke="#082558" stroke-linecap="round" stroke-linejoin="round" d="M45.7148 78.387V48.236"></path><path id="Vector_30" stroke="#082558" stroke-linecap="round" stroke-linejoin="round" d="M45.7148 84.979V78.843"></path><path id="Vector_31" stroke="#082558" stroke-linecap="round" stroke-linejoin="round" d="M45.7148 195V92.275"></path><path id="Vector_32" stroke="#082558" stroke-linecap="round" stroke-linejoin="round" d="M48.5078 90.565V195"></path><path id="Vector_33" stroke="#082558" stroke-linecap="round" stroke-linejoin="round" d="M48.5078 80.705V83.858"></path><path id="Vector_34" stroke="#082558" stroke-linecap="round" stroke-linejoin="round" d="M48.5078 48.236V78.558"></path><path id="Vector_35" stroke="#082558" stroke-linecap="round" stroke-linejoin="round" d="M149.39 85.3781C154.145 96.1694 154.73 108.341 151.031 119.538C147.333 130.736 139.613 140.164 129.366 146"></path><path id="Vector_36" stroke="#082558" stroke-linecap="round" stroke-linejoin="round" d="M65.2258 79.717C69.231 73.1892 74.7512 67.7235 81.3183 63.7833C84.4478 61.9057 87.771 60.4009 91.2199 59.29M143.126 75.011C138.364 69.0128 132.226 64.2514 125.232 61.1304C124.772 60.925 124.309 60.7271 123.843 60.5367"></path><path id="Vector_37" stroke="#082558" stroke-linecap="round" stroke-linejoin="round" d="M87.417 148.529C78.7614 144.9 71.3707 138.795 66.1727 130.981C60.9747 123.166 58.2011 113.99 58.2 104.605C58.1998 99.9205 58.8837 95.261 60.2299 90.774"></path><path id="Vector_38" stroke="#082558" stroke-linecap="round" stroke-linejoin="round" d="M113.825 151.55C111.196 152.104 108.509 152.327 105.825 152.215C104.525 152.215 103.218 152.163 101.931 152.06"></path><path id="Vector_39" stroke="#082558" stroke-linecap="round" stroke-linejoin="round" d="M151.081 83.668C147.357 87.392 142.432 92.784 137.345 98.924C136.076 100.461 134.269 101.456 132.293 101.706C130.316 101.957 128.318 101.444 126.706 100.273C122.241 97.025 119.22 94.688 114.319 91.097"></path><path id="Vector_40" stroke="#082558" stroke-linecap="round" stroke-linejoin="round" d="M101.928 73.308L103.47 71.11"></path><path id="Vector_41" stroke="#082558" stroke-linecap="round" stroke-linejoin="round" d="M142.27 75.543C138.085 79.1745 134.335 83.2781 131.094 87.772C131.094 87.772 121.613 79.833 115.117 75.879C108.409 71.796 106.831 78.539 106.092 72.934C105.539 68.734 105.978 67.974 106.624 67.634C110.024 65.842 108.461 62.724 106.681 64.214C105.622 65.101 105.503 64.714 105.458 63.885C105.282 60.685 102.285 55.885 99.025 63.416C94.425 74.036 103.47 71.11 103.47 71.11"></path><path id="Vector_42" stroke="#082558" stroke-linecap="round" stroke-linejoin="round" d="M101.988 71.42C102.101 73.048 101.835 75.671 100.222 75.29C96.082 74.312 94.31 74.962 91.957 76.79C87.277 80.428 77.7649 85.814 77.7649 85.814C72.1229 82.414 68.038 80.951 62.776 78.69C59.9885 81.7703 58.3693 85.7303 58.2 89.881C65.7 93.092 68.574 94.933 74.444 97.803C75.7588 98.4498 77.2151 98.7558 78.6791 98.6927C80.143 98.6296 81.5676 98.1995 82.8219 97.442C86.5109 95.206 89.9839 93.149 93.7649 91.154"></path><path id="Vector_43" stroke="#082558" stroke-linecap="round" stroke-linejoin="round" d="M146.407 75.575C144.142 74.442 142.125 74.741 141.854 76.483C141.621 77.983 142.639 79.753 143.607 80.914C144.958 82.6129 146.861 83.7859 148.986 84.23C149.48 84.3681 150.008 84.3166 150.466 84.0855C150.924 83.8544 151.279 83.4605 151.462 82.981"></path><path id="Vector_44" stroke="#082558" stroke-linecap="round" stroke-linejoin="round" d="M92.584 83.193C92.9954 89.4682 94.6011 95.6071 97.315 101.28C103.115 102.819 107.821 102.458 113.692 100.672C113.23 96.2752 113.81 91.8315 115.383 87.7"></path><path id="Vector_45" stroke="#082558" stroke-linecap="round" stroke-linejoin="round" d="M147.49 83.8201C150.184 82.7818 152.953 81.95 155.774 81.3321C158.302 80.8994 160.872 80.7718 163.43 80.9521C167.193 81.1741 167.794 80.3231 163.905 78.9951C162.478 78.5071 155.185 77.4741 153.57 77.2471C150.986 76.8841 147.17 76.5061 144.64 76.4301C144.448 76.4305 144.256 76.4425 144.066 76.4661"></path><path id="Vector_46" stroke="#082558" stroke-linecap="round" stroke-linejoin="round" d="M141.848 77.3001C141.902 77.2661 150.67 74.0001 154.159 72.4001C158.208 70.5391 157.118 71.9781 156.078 73.2171C155.314 74.1261 151.537 76.6371 153.57 77.2451"></path><path id="Vector_47" stroke="#082558" stroke-linecap="round" stroke-linejoin="round" d="M150.074 82.9C152.374 82.349 156.914 82.827 158.927 82.942C160.561 83.036 162.936 83.572 164.76 83.742C165.178 83.781 165.634 83.172 163.202 82.184C162.289 81.815 160.68 81.148 159.92 80.914"></path><path id="Vector_48" stroke="#082558" stroke-linecap="round" stroke-linejoin="round" d="M149.977 82.942C151.869 82.949 153.754 83.1541 155.603 83.554C157.103 83.896 159.617 84.845 161.226 85.283C161.626 85.392 162.176 84.865 159.953 83.478C159.785 83.366 159.47 83.178 159.098 82.958"></path><path id="Vector_49" stroke="#082558" stroke-linecap="round" stroke-linejoin="round" d="M58.368 88.19C55.2997 87.7351 52.1975 87.5507 49.097 87.639C46.5363 87.8347 44.0059 88.3191 41.554 89.083C37.945 90.205 37.154 89.495 40.623 87.283C46.4806 84.4907 52.5392 82.1411 58.748 80.254C59.6288 80.0134 60.5612 80.0399 61.427 80.33"></path><path id="Vector_50" stroke="#082558" stroke-linecap="round" stroke-linejoin="round" d="M50.3309 83.136C52.1549 82.053 47.8439 80.536 46.8929 79.836C45.6019 78.884 44.1779 77.756 48.5649 78.582C52.2395 79.3302 55.9591 79.8373 59.6999 80.1"></path><path id="Vector_51" stroke="#082558" stroke-linecap="round" stroke-linejoin="round" d="M44.9358 88.228C44.1358 88.722 42.5438 89.884 42.0858 90.228C39.9858 91.781 40.5478 92.264 40.9458 92.128C42.5268 91.588 44.9548 90.437 46.4178 89.981C48.7928 89.24 53.3518 87.663 55.5178 87.891"></path><path id="Vector_52" stroke="#082558" stroke-linecap="round" stroke-linejoin="round" d="M46.2848 90.014C45.9618 90.337 45.7148 90.603 45.5628 90.736C43.7388 92.598 44.3818 92.992 44.7458 92.788C46.1978 91.971 48.4138 90.474 49.7998 89.788C51.4933 88.9884 53.2542 88.3398 55.0618 87.85"></path><path id="Vector_53" stroke="#082558" stroke-linecap="round" stroke-linejoin="round" d="M95.0159 192.15C94.7959 189.933 94.3111 187.751 93.5719 185.65C89.5178 186.809 85.22 186.809 81.1659 185.65C75.7899 187.208 69.6529 191.976 66.4419 194.978C77.2329 194.978 84.3769 194.883 92.5839 194.864C92.9279 194.865 93.2682 194.793 93.5824 194.652C93.8967 194.512 94.1778 194.308 94.4074 194.051C94.637 193.795 94.8098 193.493 94.9147 193.166C95.0196 192.838 95.0541 192.492 95.0159 192.15V192.15Z"></path><path id="Vector_54" stroke="#082558" stroke-linecap="round" stroke-linejoin="round" d="M100.07 155.916C100.195 161.221 95.9638 171.74 93.5698 185.672"></path><path id="Vector_55" stroke="#082558" stroke-linecap="round" stroke-linejoin="round" d="M81.166 185.653L87.342 153.748"></path><path id="Vector_56" stroke="#082558" stroke-linecap="round" stroke-linejoin="round" d="M108.2 132.438L100.734 155.806C95.8143 156.672 90.7469 155.77 86.428 153.26L97.315 101.3"></path><path id="Vector_57" stroke="#082558" stroke-linecap="round" stroke-linejoin="round" d="M155.261 175.944L151.727 174.044C150.321 178.66 148.627 180.028 144.279 182.878C146.464 186.146 145.951 187.761 145.704 188.71C143.404 190.876 142.247 190.848 140.651 194.99H148.651C149.725 195.014 150.784 194.73 151.703 194.173C152.621 193.616 153.362 192.808 153.838 191.845C155.038 189.245 156.038 183.98 157.162 180.883C157.512 179.97 157.511 178.961 157.16 178.048C156.809 177.136 156.132 176.387 155.261 175.944V175.944Z"></path><path id="Vector_58" stroke="#082558" stroke-linecap="round" stroke-linejoin="round" d="M144.298 182.879L121.405 158.2"></path><path id="Vector_59" stroke="#082558" stroke-linecap="round" stroke-linejoin="round" d="M131.36 150.391C134.58 153.04 137.492 156.042 140.043 159.34C143.536 164.129 151.727 174.04 151.727 174.04"></path><path id="Vector_60" stroke="#082558" stroke-linecap="round" stroke-linejoin="round" d="M103.47 114.427L112.21 147.77C112.874 150.301 114.229 152.596 116.124 154.4L120.479 158.546C125.12 157.05 129.091 153.977 131.702 149.859L127.77 143.359L125.281 118.015C124.367 108.575 118.732 102.066 113.692 100.669"></path><path id="Vector_61" stroke="#082558" stroke-linecap="round" stroke-linejoin="round" d="M110.253 74.511C107.051 78.5377 104.505 83.0453 102.711 87.867C100.184 83.706 97.7109 74.867 97.7109 74.867"></path><path id="Vector_62" stroke="#082558" stroke-linecap="round" stroke-linejoin="round" d="M26.1838 195H177.299"></path><path id="Vector_63" stroke="#082558" stroke-linecap="round" stroke-linejoin="round" d="M159.231 38.5281C151.708 37.1031 144.531 41.5281 143.231 48.4071C142.789 50.8171 143.101 53.305 144.125 55.5311L140.876 60.8511L147.032 59.5971C149.099 61.5791 151.701 62.9132 154.517 63.4351C162.04 64.8601 169.217 60.4351 170.517 53.5561C171.827 46.6781 166.774 39.9531 159.231 38.5281Z"></path><path id="Vector_64" stroke="#082558" stroke-linecap="round" stroke-linejoin="round" d="M157.027 52.53C157.046 51.675 157.374 51.051 158.433 49.642C160.718 46.603 159.333 44.509 157.388 44.417C157.04 44.4015 156.693 44.4628 156.372 44.5967C156.051 44.7305 155.763 44.9336 155.529 45.1914C155.295 45.4492 155.12 45.7555 155.018 46.0883C154.916 46.4211 154.889 46.7724 154.938 47.117"></path><path id="Vector_65" stroke="#082558" stroke-linecap="round" stroke-linejoin="round" d="M148.782 144.616H152.886"></path><path id="Vector_66" stroke="#082558" stroke-linecap="round" stroke-linejoin="round" d="M160.162 144.597H164.266"></path><path id="Vector_67" stroke="#082558" stroke-linecap="round" stroke-linejoin="round" d="M156.524 136.864V140.968"></path><path id="Vector_68" stroke="#082558" stroke-linecap="round" stroke-linejoin="round" d="M156.543 148.245V152.348"></path><path id="Vector_69" stroke="#082558" stroke-linecap="round" stroke-linejoin="round" d="M151.043 139.144L153.95 142.032"></path><path id="Vector_70" stroke="#082558" stroke-linecap="round" stroke-linejoin="round" d="M159.117 147.181L162.024 150.068"></path><path id="Vector_71" stroke="#082558" stroke-linecap="round" stroke-linejoin="round" d="M162.005 139.125L159.098 142.032"></path><path id="Vector_72" stroke="#082558" stroke-linecap="round" stroke-linejoin="round" d="M153.969 147.181L151.062 150.087"></path><path id="Vector_73" stroke="#082558" stroke-linecap="round" stroke-linejoin="round" d="M26.2599 48.236C25.636 48.2347 25.0234 48.0695 24.4835 47.7569C23.9436 47.4443 23.4953 46.9953 23.1835 46.4548C22.8718 45.9144 22.7076 45.3016 22.7073 44.6777C22.707 44.0538 22.8707 43.4407 23.1819 42.9L44.0239 6.78103C44.3371 6.23951 44.7872 5.7899 45.329 5.47731C45.8708 5.16473 46.4854 5.00018 47.1109 5.00018C47.7365 5.00018 48.351 5.16473 48.8928 5.47731C49.4347 5.7899 49.8848 6.23951 50.1979 6.78103L71.0399 42.9C71.3522 43.4408 71.5168 44.0542 71.517 44.6786C71.5173 45.3031 71.3532 45.9166 71.0413 46.4576C70.7294 46.9986 70.2807 47.448 69.7402 47.7607C69.1997 48.0734 68.5864 48.2383 67.9619 48.239L26.2599 48.236Z"></path><path id="Vector_74" stroke="#082558" stroke-linecap="round" stroke-linejoin="round" d="M76.758 27.357C76.7917 27.7327 76.7133 28.1099 76.5326 28.4409C76.3519 28.772 76.0771 29.0421 75.743 29.2169C75.4088 29.3918 75.0303 29.4637 74.6553 29.4235C74.2803 29.3833 73.9256 29.2328 73.6362 28.991C73.3467 28.7492 73.1354 28.427 73.0291 28.0652C72.9227 27.7033 72.926 27.3181 73.0386 26.9581C73.1512 26.5981 73.368 26.2796 73.6616 26.0429C73.9552 25.8061 74.3124 25.6618 74.688 25.628C75.1915 25.5841 75.6919 25.7414 76.0798 26.0654C76.4677 26.3893 76.7116 26.8538 76.758 27.357V27.357Z"></path><path id="Vector_75" stroke="#082558" stroke-linecap="round" stroke-linejoin="round" d="M61.303 165.704V173.38"></path><path id="Vector_76" stroke="#082558" stroke-linecap="round" stroke-linejoin="round" d="M65.1498 169.542H57.4558"></path><path id="Vector_77" stroke="#082558" stroke-linecap="round" stroke-linejoin="round" d="M106.244 73.827C106.611 74.0242 107.019 74.131 107.436 74.1384C107.852 74.1458 108.264 74.0537 108.638 73.8697C109.011 73.6857 109.336 73.4151 109.583 73.0805C109.831 72.7459 109.996 72.357 110.063 71.946C110.356 72.4708 110.821 72.879 111.379 73.1021C111.937 73.3253 112.555 73.3498 113.129 73.1717C113.703 72.9936 114.199 72.6237 114.532 72.1238C114.866 71.624 115.018 71.0246 114.963 70.426C115.43 70.7614 115.994 70.9336 116.569 70.916C117.143 70.8984 117.696 70.6921 118.141 70.3288C118.587 69.9655 118.9 69.4656 119.033 68.9064C119.166 68.3472 119.111 67.7598 118.876 67.235C119.268 67.3443 119.679 67.3605 120.079 67.2822C120.478 67.2038 120.853 67.0332 121.174 66.7839C121.495 66.5346 121.754 66.2136 121.929 65.8466C122.104 65.4795 122.191 65.0766 122.182 64.67C122.176 64.321 122.1 63.9767 121.96 63.6571C121.82 63.3374 121.618 63.0488 121.365 62.808C122.049 62.7889 122.698 62.5009 123.171 62.0065C123.644 61.5121 123.903 60.8512 123.892 60.167C123.882 59.6141 123.699 59.0782 123.368 58.6351C123.038 58.1919 122.576 57.8637 122.049 57.697C122.598 57.5354 123.081 57.1998 123.423 56.7407C123.766 56.2817 123.95 55.7238 123.949 55.151C123.94 54.4834 123.675 53.8447 123.208 53.3673C122.741 52.89 122.108 52.6106 121.441 52.587C121.835 52.2303 122.111 51.7622 122.232 51.2449C122.354 50.7276 122.315 50.1855 122.121 49.6907C121.928 49.196 121.588 48.7718 121.147 48.4747C120.707 48.1775 120.186 48.0214 119.655 48.027C119.443 48.0317 119.232 48.0636 119.028 48.122C119.272 47.6013 119.339 47.0145 119.216 46.4523C119.094 45.8902 118.79 45.384 118.351 45.012C117.912 44.6401 117.363 44.423 116.788 44.3945C116.214 44.3659 115.646 44.5274 115.172 44.854C115.238 44.2572 115.098 43.6557 114.773 43.1505C114.448 42.6453 113.96 42.2672 113.389 42.0795C112.819 41.8919 112.201 41.9062 111.64 42.1201C111.079 42.3339 110.609 42.7343 110.308 43.254C109.884 40.333 105.426 40.265 104.969 43.235C104.672 42.7132 104.205 42.3092 103.645 42.0908C103.086 41.8724 102.469 41.8528 101.897 42.0354C101.324 42.218 100.833 42.5915 100.503 43.0936C100.174 43.5956 100.027 44.1956 100.087 44.793C99.6162 44.462 99.0496 44.2951 98.4746 44.318C97.8996 44.3409 97.3481 44.5523 96.9052 44.9196C96.4622 45.287 96.1524 45.7898 96.0235 46.3507C95.8946 46.9115 95.9538 47.4992 96.192 48.023C95.6268 47.8693 95.0265 47.9094 94.4869 48.1369C93.9472 48.3645 93.4994 48.7663 93.215 49.2783C92.9306 49.7902 92.826 50.3827 92.9179 50.9611C93.0098 51.5395 93.2929 52.0704 93.722 52.469C93.1022 52.4882 92.5096 52.7273 92.0501 53.1436C91.5906 53.5599 91.2944 54.1261 91.2143 54.741C91.1343 55.3558 91.2758 55.979 91.6134 56.499C91.9511 57.0191 92.4628 57.4019 93.057 57.579C92.4618 57.7515 91.9476 58.1303 91.6063 58.6475C91.265 59.1647 91.119 59.7864 91.1945 60.4015C91.2699 61.0165 91.5619 61.5846 92.018 62.0039C92.4742 62.4232 93.0648 62.6665 93.684 62.69C93.2541 63.0864 92.9695 63.6155 92.8758 64.1926C92.782 64.7698 92.8845 65.3617 93.1668 65.8737C93.449 66.3858 93.8949 66.7884 94.433 67.0173C94.971 67.2461 95.5703 67.2879 96.135 67.136C95.9373 67.5529 95.8541 68.0149 95.894 68.4746C95.9338 68.9343 96.0953 69.3751 96.3618 69.7517C96.6283 70.1284 96.9903 70.4273 97.4105 70.6179C97.8307 70.8084 98.294 70.8837 98.753 70.836"></path><path id="Vector_78" stroke="#082558" stroke-linecap="round" stroke-linejoin="round" d="M127.656 154.552L122.697 148.643"></path><path id="Vector_79" stroke="#082558" stroke-linecap="round" stroke-linejoin="round" d="M95.282 155.901L97.315 148.529"></path><path id="Vector_80" stroke="#082558" stroke-linecap="round" stroke-linejoin="round" d="M110.253 107.284C112.97 110.57 115.991 111.957 119.239 111.919"></path><circle id="Ellipse 1" cx="47.11" cy="37.707" r="1.32" stroke="#082558"></circle><path id="Vector 1" stroke="#082558" stroke-linecap="round" d="M47.0911 18.894V31.6799"></path></g></g></svg>